<?xml version="1.0" encoding="utf-8" standalone="no"?>
<!DOCTYPE svg PUBLIC "-//W3C//DTD SVG 1.1//EN"
  "http://www.w3.org/Graphics/SVG/1.1/DTD/svg11.dtd">
<svg xmlns:xlink="http://www.w3.org/1999/xlink" width="424.8pt" height="424.8pt" viewBox="0 0 424.8 424.8" xmlns="http://www.w3.org/2000/svg" version="1.1">
 <metadata>
  <rdf:RDF xmlns:dc="http://purl.org/dc/elements/1.1/" xmlns:cc="http://creativecommons.org/ns#" xmlns:rdf="http://www.w3.org/1999/02/22-rdf-syntax-ns#">
   <cc:Work>
    <dc:type rdf:resource="http://purl.org/dc/dcmitype/StillImage"/>
    <dc:date>2025-11-17T22:55:08.023259</dc:date>
    <dc:format>image/svg+xml</dc:format>
    <dc:creator>
     <cc:Agent>
      <dc:title>Matplotlib v3.8.2, https://matplotlib.org/</dc:title>
     </cc:Agent>
    </dc:creator>
   </cc:Work>
  </rdf:RDF>
 </metadata>
 <defs>
  <style type="text/css">*{stroke-linejoin: round; stroke-linecap: butt}</style>
 </defs>
 <g id="figure_1">
  <g id="patch_1">
   <path d="M 0 424.8 
L 424.8 424.8 
L 424.8 0 
L 0 0 
z
" style="fill: #ffffff"/>
  </g>
  <g id="axes_1">
   <g id="PathCollection_1">
    <defs>
     <path id="m76f436635a" d="M 0 2 
C 0.530406 2 1.03916 1.789267 1.414214 1.414214 
C 1.789267 1.03916 2 0.530406 2 0 
C 2 -0.530406 1.789267 -1.03916 1.414214 -1.414214 
C 1.03916 -1.789267 0.530406 -2 0 -2 
C -0.530406 -2 -1.03916 -1.789267 -1.414214 -1.414214 
C -1.789267 -1.03916 -2 -0.530406 -2 0 
C -2 0.530406 -1.789267 1.03916 -1.414214 1.414214 
C -1.03916 1.789267 -0.530406 2 0 2 
z
" style="stroke: #000000"/>
    </defs>
    <g clip-path="url(#pdeba7c0e12)">
     <use xlink:href="#m76f436635a" x="376.233654" y="398.945455" style="stroke: #000000"/>
     <use xlink:href="#m76f436635a" x="256.209606" y="386.105368" style="stroke: #000000"/>
     <use xlink:href="#m76f436635a" x="298.583544" y="210.46202" style="stroke: #000000"/>
     <use xlink:href="#m76f436635a" x="398.945455" y="35.438675" style="stroke: #000000"/>
     <use xlink:href="#m76f436635a" x="29.035065" y="25.854545" style="stroke: #000000"/>
     <use xlink:href="#m76f436635a" x="25.854545" y="190.638011" style="stroke: #000000"/>
     <use xlink:href="#m76f436635a" x="106.318893" y="35.551552" style="stroke: #000000"/>
     <use xlink:href="#m76f436635a" x="219.288491" y="294.179635" style="stroke: #000000"/>
     <use xlink:href="#m76f436635a" x="253.125902" y="44.598702" style="stroke: #000000"/>
     <use xlink:href="#m76f436635a" x="361.724669" y="178.149547" style="stroke: #000000"/>
     <use xlink:href="#m76f436635a" x="134.333992" y="141.629853" style="stroke: #000000"/>
    </g>
   </g>
  </g>
 </g>
 <defs>
  <clipPath id="pdeba7c0e12">
   <rect x="7.2" y="7.2" width="410.4" height="410.4"/>
  </clipPath>
 </defs>
</svg>
